# xmcd CD database file
#
# Track frame offsets:
#	150
#	18388
#	35561
#	53762
#
# Disc length: 955 seconds
#
# Revision: 1
# Processed by: cddbd v1.4PL0 Copyright (c) Steve Scherf et al.
# Submitted via: CDex 1.40Release
#
DISCID=2a03b904
DTITLE=Star Eye - ...Hey You!
DYEAR=2001
DGENRE=R&B
TTITLE0=Hey You!
TTITLE1=Cheap Thrill
TTITLE2=Hey You! (Instrumental)
TTITLE3=I'm Just Goiing Down~Instrumental~
EXTD=YEAR: 2001 ID3G: 14
EXTT0=
EXTT1=
EXTT2=
EXTT3=
PLAYORDER=
